<svg xmlns="http://www.w3.org/2000/svg" width="40" height="40" viewBox="0 0 40 40">
  <g id="Grupo_20" data-name="Grupo 20" transform="translate(753.65 -2203.082)">
    <path id="Caminho_45" data-name="Caminho 45" d="M42.55,36.21a19.9,19.9,0,0,1-18.189,19.9H22.646a22,22,0,0,1-4.381-.476A19.994,19.994,0,1,1,42.55,36.115Z" transform="translate(-756.199 2186.973)" fill="#494d56"/>
    <path id="Caminho_46" data-name="Caminho 46" d="M13.955,22.939a2.135,2.135,0,0,1,1.747-.679,9.706,9.706,0,0,1,2.815,0l.777-4.271a14.851,14.851,0,0,0-5.047-.777,7.571,7.571,0,0,0-4.174.971,4.368,4.368,0,0,0-2.233,2.33,9.707,9.707,0,0,0-.679,4.465v1.65H3.86V31.48h3.3V46.817a22.423,22.423,0,0,0,4.465.485h1.747V31.675h4.465V26.821H13.373V24.977C13.373,24.006,13.47,23.327,13.955,22.939Z" transform="translate(-745.178 2195.682)" fill="#fff"/>
  </g>
</svg>
