<svg xmlns="http://www.w3.org/2000/svg" width="40" height="40" viewBox="0 0 40 40">
  <g id="Grupo_19" data-name="Grupo 19" transform="translate(-140 -3083.818)">
    <g id="Grupo_16" data-name="Grupo 16" transform="translate(609.564 654)">
      <path id="Caminho_43" data-name="Caminho 43" d="M57.51,36.14A19.9,19.9,0,1,1,51.714,22,20,20,0,0,1,57.51,36.14Z" transform="translate(-487.074 2413.678)" fill="#494d56"/>
      <path id="Caminho_44" data-name="Caminho 44" d="M37.1,17.139H21.352a2.562,2.562,0,0,0-2.846,2.846v15.75a2.562,2.562,0,0,0,2.752,2.846H37.1a2.562,2.562,0,0,0,2.846-2.846V19.891A2.467,2.467,0,0,0,37.1,17.139Zm-1.708,2.372c2.087,0,2.087,0,2.087,2.182s0,2.087-2.087,2.087-2.087,0-2.087-2.182S33.307,19.511,35.395,19.511Zm-6.167,4.175a4.175,4.175,0,1,1,0,8.255,4.08,4.08,0,0,1-4.08-4.175A4.175,4.175,0,0,1,29.227,23.686Zm8.254,11.386c0,.949,0,1.233-1.233,1.233H22.206c-.949,0-1.233,0-1.233-1.233V27.2c0-.759,0-.854.949-.854s.949,0,.854.949a6.547,6.547,0,1,0,13-.474v-.474A1.394,1.394,0,0,1,37.2,27.766Z" transform="translate(-478.696 2421.957)" fill="#fff" fill-rule="evenodd"/>
    </g>
  </g>
</svg>
