<svg xmlns="http://www.w3.org/2000/svg" width="40" height="40" viewBox="0 0 40 40">
  <g id="Grupo_18" data-name="Grupo 18" transform="translate(-140 -3238.583)">
    <path id="Caminho_40" data-name="Caminho 40" d="M47.52,36.034a20,20,0,1,1-20-19.9,20,20,0,0,1,20,19.9Z" transform="translate(132.48 3222.453)" fill="#fd5100"/>
    <path id="Caminho_41" data-name="Caminho 41" d="M30.779,25.731A11.184,11.184,0,0,0,19.861,16.92H17.748A11.28,11.28,0,0,0,10,33.309a.617.617,0,0,1,0,.529c-.528,1.762-1.057,3.524-1.5,5.2h0l5.9-.793h0A11,11,0,0,0,21.71,39.3a11.19,11.19,0,0,0,9.069-13.569ZM21.446,37.538H20.125a9.5,9.5,0,0,1-5.019-1.322h-.616L11.5,37.01h0l.792-2.82a.705.705,0,0,0,0-.7,9.346,9.346,0,0,1,0-10.485,8.8,8.8,0,0,1,9.421-3.613,8.808,8.808,0,0,1,7.132,7.049,9.252,9.252,0,0,1-7.4,11.1Z" transform="translate(140.174 3230.096)" fill="#fff" fill-rule="evenodd"/>
    <path id="Caminho_42" data-name="Caminho 42" d="M19.733,30.323a3.2,3.2,0,0,1-1.388,0,13.664,13.664,0,0,1-7.366-5.337A9.074,9.074,0,0,1,9.058,21.57a4.056,4.056,0,0,1,1.281-3.736,2.135,2.135,0,0,1,1.815,0h0a21.35,21.35,0,0,0,1.174,2.775,1.388,1.388,0,0,1,0,.64,4.164,4.164,0,0,1-.854,1.067v.747a8.967,8.967,0,0,0,4.59,4.056.641.641,0,0,0,.747,0l.961-1.281h.747l2.028.854h0c.64,0,.64,0,.64,1.067s-1.174,2.135-2.455,2.562Z" transform="translate(144.446 3234.56)" fill="#fff" fill-rule="evenodd"/>
  </g>
</svg>
